<svg  viewBox="0 0 405 169" xmlns="http://www.w3.org/2000/svg"><g fill="#000" fill-rule="evenodd"><path d="M36.224 58.12c3.266 0 6.25-.565 8.95-1.7 2.7-1.133 5.032-2.716 7-4.75 1.966-2.033 3.5-4.45 4.6-7.25 1.1-2.8 1.65-5.901 1.65-9.3 0-3.4-.55-6.5-1.65-9.3-1.1-2.801-2.634-5.233-4.6-7.301-1.968-2.065-4.3-3.665-7-4.8-2.7-1.132-5.684-1.7-8.95-1.7-3.268 0-6.25.568-8.95 1.7-2.7 1.135-5.034 2.735-7 4.8-1.967 2.068-3.5 4.5-4.6 7.3-1.1 2.8-1.65 5.9-1.65 9.3 0 3.4.55 6.5 1.65 9.3 1.1 2.8 2.633 5.218 4.6 7.25 1.966 2.035 4.3 3.618 7 4.75 2.7 1.136 5.682 1.7 8.95 1.7m0-57.9c5.266 0 10.083.868 14.45 2.6 4.365 1.736 8.115 4.15 11.25 7.25 3.133 3.1 5.566 6.785 7.3 11.05 1.732 4.268 2.6 8.936 2.6 14 0 5.068-.868 9.735-2.6 14-1.734 4.268-4.167 7.936-7.3 11-3.135 3.068-6.885 5.468-11.25 7.2-4.367 1.734-9.184 2.6-14.45 2.6-5.268 0-10.084-.866-14.45-2.6-4.367-1.732-8.117-4.132-11.25-7.2-3.134-3.064-5.568-6.732-7.3-11-1.734-4.265-2.6-8.932-2.6-14 0-5.064.866-9.732 2.6-14 1.732-4.265 4.166-7.95 7.3-11.05 3.133-3.1 6.883-5.514 11.25-7.25 4.366-1.732 9.182-2.6 14.45-2.6M115.123 1.72h9.699l17.6 42.4 18.4-42.4h9.7l11 66.7h-13.2l-6-41.1-17.9 41.1h-4.4l-17.1-41.1-6.8 41.1h-13.2zM210.153 1.734h21.57v6.53h-13.991v8.686h13.409v6.53h-13.41v10.61h13.993v6.53h-21.571zM290.613 32.72h30.6v1.7c0 5.067-.685 9.767-2.05 14.1-1.367 4.334-3.417 8.084-6.15 11.25-2.735 3.167-6.134 5.65-10.2 7.45-4.067 1.8-8.8 2.7-14.2 2.7-5.135 0-9.85-.835-14.15-2.5-4.3-1.667-8-4.034-11.1-7.1-3.1-3.067-5.5-6.734-7.2-11-1.7-4.266-2.55-9-2.55-14.2 0-5.2.883-9.933 2.65-14.2 1.765-4.266 4.215-7.933 7.35-11 3.133-3.066 6.865-5.45 11.2-7.15 4.332-1.7 9.066-2.55 14.2-2.55 4.733 0 8.8.65 12.2 1.95 3.4 1.3 6.215 2.817 8.45 4.55 2.232 1.733 3.982 3.467 5.25 5.2 1.265 1.734 2.165 3.067 2.7 4l-11.3 6.1c-.335-.6-.918-1.466-1.75-2.6-.835-1.134-1.95-2.25-3.35-3.35-1.4-1.1-3.118-2.05-5.15-2.85-2.035-.8-4.418-1.2-7.15-1.2-3.268 0-6.25.616-8.95 1.85-2.7 1.234-5.018 2.9-6.95 5-1.935 2.1-3.418 4.567-4.45 7.4-1.035 2.834-1.55 5.85-1.55 9.05 0 2.6.4 5.25 1.2 7.95.8 2.7 2.065 5.15 3.8 7.35 1.733 2.2 3.983 4 6.75 5.4 2.765 1.4 6.116 2.1 10.05 2.1 2.332 0 4.566-.266 6.7-.8 2.132-.534 4.05-1.367 5.75-2.5 1.7-1.133 3.132-2.6 4.3-4.4 1.165-1.8 1.915-3.967 2.25-6.5h-17.2v-11.2zM359.78 26.278h11.076l-5.48-13.992-5.597 13.992zm2.447-24.544h6.413l16.033 38.886h-8.162l-3.44-8.162h-15.683l-3.439 8.162h-8.22l16.498-38.886zM16.823 132.42h3.7c.601 0 1.616-.065 3.05-.2 1.434-.133 2.866-.532 4.301-1.2 1.432-.665 2.7-1.665 3.8-3 1.1-1.332 1.65-3.233 1.65-5.7 0-2.465-.55-4.382-1.65-5.75-1.1-1.366-2.35-2.366-3.75-3-1.4-.632-2.8-1-4.2-1.1-1.4-.1-2.4-.15-3-.15h-3.9v20.1zm-13-30.7h19.301c3.2 0 6.232.385 9.1 1.15 2.865.767 5.365 1.95 7.5 3.55 2.132 1.6 3.832 3.667 5.1 6.2 1.265 2.534 1.9 5.568 1.9 9.1 0 4.867-1.335 8.95-4 12.25-2.668 3.3-6.368 5.417-11.1 6.35l20.8 28.1h-16.2l-17.8-26.8h-1.6v26.8h-13v-66.7zM78.054 101.734h21.57v6.53H85.634v8.686h13.409v6.53h-13.41v10.61h13.993v6.53H78.054zM124.713 101.72h10.3l39.3 44.9v-44.9h13v66.7h-10.1l-39.5-45.099v45.1h-13zM238.013 157.22h4c.8 0 1.833-.032 3.1-.1 1.266-.065 2.633-.25 4.1-.55a32.724 32.724 0 0 0 4.55-1.3c1.566-.566 3.083-1.383 4.55-2.45 2.666-1.933 4.716-4.465 6.15-7.6 1.433-3.133 2.15-6.5 2.15-10.1 0-3.533-.7-6.882-2.1-10.05-1.4-3.165-3.434-5.75-6.1-7.75a18.975 18.975 0 0 0-4.2-2.4 25.067 25.067 0 0 0-4.35-1.35 26.77 26.77 0 0 0-4.15-.55 75.31 75.31 0 0 0-3.7-.1h-4v44.3zm4.4-55.5c4.666 0 9.05.4 13.15 1.2 4.1.8 7.983 2.568 11.65 5.3 4.066 3.067 7.216 6.917 9.45 11.55 2.233 4.635 3.35 9.75 3.35 15.35s-1.134 10.7-3.4 15.3c-2.267 4.6-5.6 8.467-10 11.6-1.934 1.4-3.867 2.517-5.8 3.35a32.334 32.334 0 0 1-5.85 1.9c-1.967.434-4 .734-6.1.9a84.07 84.07 0 0 1-6.65.25h-17.2v-66.7h17.4zM308.844 101.734h21.57v6.53h-13.991v8.686h13.409v6.53h-13.41v10.61h13.993v6.53h-21.571zM368.504 132.42h3.7c.6 0 1.616-.065 3.05-.2 1.434-.133 2.866-.532 4.3-1.2 1.433-.665 2.7-1.665 3.8-3 1.1-1.332 1.65-3.233 1.65-5.7 0-2.465-.55-4.382-1.65-5.75-1.1-1.366-2.35-2.366-3.75-3-1.4-.632-2.8-1-4.2-1.1-1.4-.1-2.4-.15-3-.15h-3.9v20.1zm-13-30.7h19.3c3.2 0 6.233.385 9.1 1.15 2.866.767 5.366 1.95 7.5 3.55 2.133 1.6 3.833 3.667 5.1 6.2 1.266 2.534 1.9 5.568 1.9 9.1 0 4.867-1.334 8.95-4 12.25-2.667 3.3-6.367 5.417-11.1 6.35l20.8 28.1h-16.2l-17.8-26.8h-1.6v26.8h-13v-66.7z"/></g></svg>