<svg width="400" height="35" xmlns="http://www.w3.org/2000/svg"><g fill="#000" fill-rule="evenodd"><path d="M17.698 28.919c1.62 0 3.098-.28 4.437-.843a10.33 10.33 0 0 0 3.47-2.354c.974-1.008 1.734-2.206 2.28-3.594.545-1.388.817-2.925.817-4.61 0-1.685-.272-3.221-.818-4.61a11.054 11.054 0 0 0-2.28-3.618 10.18 10.18 0 0 0-3.47-2.379c-1.338-.561-2.817-.843-4.436-.843-1.62 0-3.097.282-4.436.843a10.17 10.17 0 0 0-3.47 2.379 11.046 11.046 0 0 0-2.28 3.619c-.545 1.388-.817 2.924-.817 4.61 0 1.684.272 3.221.818 4.61.545 1.387 1.305 2.585 2.28 3.593a10.32 10.32 0 0 0 3.47 2.354c1.338.563 2.816.843 4.435.843m0-28.7c2.61 0 4.998.43 7.163 1.29 2.163.86 4.022 2.057 5.576 3.593 1.553 1.537 2.759 3.363 3.618 5.477.859 2.115 1.289 4.429 1.289 6.94s-.43 4.824-1.289 6.939c-.86 2.115-2.065 3.933-3.618 5.452-1.554 1.52-3.413 2.71-5.576 3.569-2.165.859-4.552 1.289-7.163 1.289-2.61 0-4.998-.43-7.162-1.29-2.164-.858-4.023-2.048-5.576-3.568-1.554-1.52-2.76-3.337-3.618-5.452-.86-2.115-1.29-4.428-1.29-6.94 0-2.51.43-4.824 1.29-6.939C2.2 8.465 3.406 6.64 4.96 5.102 6.513 3.566 8.372 2.37 10.536 1.51 12.7.649 15.087.219 17.698.219M56.806.963h4.808l8.724 21.017L79.457.963h4.808l5.453 33.06h-6.543L80.2 13.654l-8.872 20.37h-2.181l-8.476-20.37-3.37 20.37h-6.543zM103.909.97H114.6v3.237h-6.936v4.306h6.647v3.236h-6.647v5.259h6.936v3.237h-10.692zM143.79 16.329h15.167v.842c0 2.512-.34 4.842-1.016 6.99-.677 2.148-1.694 4.007-3.049 5.575-1.355 1.57-3.04 2.8-5.056 3.693-2.015.892-4.361 1.338-7.037 1.338-2.546 0-4.883-.413-7.014-1.239-2.131-.826-3.965-1.999-5.502-3.518-1.537-1.52-2.726-3.338-3.569-5.453-.842-2.114-1.264-4.46-1.264-7.039 0-2.577.438-4.923 1.313-7.038.876-2.114 2.09-3.932 3.644-5.452 1.553-1.52 3.403-2.702 5.55-3.544 2.149-.842 4.495-1.264 7.04-1.264 2.346 0 4.361.322 6.047.966 1.685.645 3.08 1.397 4.188 2.256 1.107.859 1.974 1.718 2.603 2.577.627.86 1.073 1.52 1.338 1.983l-5.602 3.023c-.165-.297-.454-.726-.867-1.289-.413-.561-.966-1.115-1.66-1.66-.694-.545-1.546-1.016-2.553-1.413-1.008-.396-2.19-.594-3.544-.594-1.62 0-3.098.305-4.436.916a10.633 10.633 0 0 0-3.445 2.479c-.959 1.04-1.694 2.264-2.206 3.668-.512 1.405-.768 2.9-.768 4.486 0 1.288.199 2.602.595 3.94a10.767 10.767 0 0 0 1.883 3.643c.86 1.091 1.975 1.983 3.346 2.677 1.37.694 3.032 1.04 4.981 1.04 1.157 0 2.264-.13 3.321-.395a9.06 9.06 0 0 0 2.85-1.24 7.453 7.453 0 0 0 2.132-2.181c.578-.892.95-1.966 1.115-3.222h-8.525V16.33zM178.073 13.136h5.49l-2.716-6.935-2.774 6.935zM179.286.97h3.179l7.947 19.275h-4.046l-1.705-4.046h-7.773l-1.705 4.046h-4.075L179.286.97zM207.904 16.18h1.834c.298 0 .801-.032 1.512-.099a6.44 6.44 0 0 0 2.132-.595c.71-.33 1.338-.825 1.883-1.487.545-.66.818-1.602.818-2.825 0-1.222-.273-2.172-.818-2.85-.545-.677-1.165-1.173-1.858-1.487a6.099 6.099 0 0 0-2.083-.545 23.88 23.88 0 0 0-1.487-.075h-1.933v9.963zM201.461.963h9.566c1.586 0 3.09.191 4.51.57 1.421.38 2.66.967 3.718 1.76 1.057.793 1.9 1.818 2.528 3.073.627 1.256.942 2.76.942 4.51 0 2.413-.662 4.437-1.983 6.072-1.322 1.636-3.156 2.685-5.501 3.148l10.31 13.928h-8.03l-8.823-13.284h-.794v13.284h-6.443V.964zM238.254.97h10.692v3.237h-6.935v4.306h6.646v3.236h-6.646v5.259h6.935v3.237h-10.692zM261.382.963h5.106l19.479 22.256V.963h6.444v33.06h-5.007l-19.58-22.353v22.354h-6.442zM317.54 28.472h1.983c.397 0 .908-.015 1.537-.05a13.772 13.772 0 0 0 2.032-.271 16.22 16.22 0 0 0 2.255-.645 9.107 9.107 0 0 0 2.256-1.214c1.32-.959 2.337-2.214 3.047-3.767s1.067-3.222 1.067-5.007c0-1.75-.348-3.41-1.042-4.98-.693-1.57-1.702-2.85-3.023-3.842a9.405 9.405 0 0 0-2.082-1.19 12.425 12.425 0 0 0-2.156-.669 13.27 13.27 0 0 0-2.057-.273 37.328 37.328 0 0 0-1.834-.05h-1.983v21.958zM319.721.963c2.313 0 4.486.198 6.518.595 2.032.397 3.957 1.273 5.774 2.627a15.495 15.495 0 0 1 4.684 5.725c1.107 2.297 1.66 4.833 1.66 7.608 0 2.776-.561 5.304-1.684 7.584-1.124 2.28-2.776 4.197-4.956 5.75a15.173 15.173 0 0 1-2.875 1.66c-.96.414-1.926.727-2.9.942-.975.215-1.983.364-3.023.446a41.67 41.67 0 0 1-3.297.124h-8.526V.964h8.625zM352.649.97h10.692v3.237h-6.936v4.306h6.647v3.236h-6.647v5.259h6.936v3.237h-10.692zM382.22 16.18h1.834c.298 0 .8-.032 1.511-.099a6.44 6.44 0 0 0 2.132-.595c.71-.33 1.338-.825 1.884-1.487.545-.66.817-1.602.817-2.825 0-1.222-.272-2.172-.817-2.85-.546-.677-1.165-1.173-1.859-1.487a6.099 6.099 0 0 0-2.082-.545 23.88 23.88 0 0 0-1.487-.075h-1.933v9.963zM375.776.963h9.567c1.586 0 3.089.191 4.51.57 1.42.38 2.66.967 3.717 1.76 1.058.793 1.9 1.818 2.528 3.073.628 1.256.942 2.76.942 4.51 0 2.413-.661 4.437-1.983 6.072-1.322 1.636-3.155 2.685-5.501 3.148l10.31 13.928h-8.03l-8.823-13.284h-.793v13.284h-6.444V.964z"/></g></svg>