<!DOCTYPE svg PUBLIC "-//W3C//DTD SVG 1.1//EN" "http://www.w3.org/Graphics/SVG/1.1/DTD/svg11.dtd">
<!-- Uploaded to: SVG Repo, www.svgrepo.com, Transformed by: SVG Repo Mixer Tools -->
<svg fill="#000000" height="800px" width="800px" version="1.1" id="Icons" xmlns="http://www.w3.org/2000/svg" xmlns:xlink="http://www.w3.org/1999/xlink" viewBox="0 0 32 32" xml:space="preserve">
<g id="SVGRepo_bgCarrier" stroke-width="0"/>
<g id="SVGRepo_tracerCarrier" stroke-linecap="round" stroke-linejoin="round"/>
<g id="SVGRepo_iconCarrier"> <path d="M22.9,11.8C22.4,10,21,8.5,19.1,8.1c-1.2-0.3-2.5-0.1-3.5,0.5C15,9,14.4,8.9,13.9,8.8c-0.1,0-0.3-0.1-0.5-0.1l-8-1.3 C4.6,7.3,3.7,7.5,3,8.1c-0.6,0.5-1,1.3-1,2.1v5.9c0,0.8,0.4,1.6,1,2.1C3.6,18.7,4.3,19,5,19c0.2,0,0.3,0,0.5,0l8-1.3 c0.2,0,0.3-0.1,0.5-0.1c0.8-0.3,1.5-0.2,2.2,0c0.6,0.3,1.2,0.4,1.9,0.4c1.5,0,3-0.7,3.9-1.9C22.9,14.9,23.2,13.4,22.9,11.8z M18,15 c-1.1,0-2-0.9-2-2s0.9-2,2-2s2,0.9,2,2S19.1,15,18,15z"/> <path d="M18.3,2c-3.4-0.1-6.5,1.5-8.4,4.1l3.8,0.6c0.3,0,0.5,0.1,0.8,0.2c0.1,0,0.1,0,0.1,0c0,0,0,0,0,0c1.4-0.8,3.2-1.1,4.9-0.7 c2.6,0.6,4.7,2.6,5.3,5.2v0c0.5,2.1,0,4.3-1.3,6C22.1,19,20.1,20,18,20c-0.9,0-1.8-0.2-2.7-0.5c-0.2-0.1-0.6,0-0.8,0 c-0.2,0.1-0.5,0.1-0.7,0.2l-6.4,1l-0.1,0.9c-0.1,1.3,0.5,2.6,1.5,3.4c1,0.8,2.4,1.1,3.6,0.7c0,0,0,0,0,0l0,0c0,0,0,0,0,0 c0.1,0,0.1,0,0.2,0c0.1,0,0.1,0.1,0.1,0.2L12,29.8c0,0.3,0,0.6,0.2,0.8c0.2,0.2,0.5,0.4,0.8,0.4h12c0.3,0,0.6-0.1,0.8-0.4 C26,30.4,26,30,26,29.7l-1-3.8c-0.8-2.8-0.2-5.9,1.5-8.6c1-1.6,1.6-3.5,1.5-5.4c0,0,0,0,0,0C27.9,6.6,23.6,2.2,18.3,2z"/> </g>
</svg>