<?xml version="1.0" encoding="UTF-8"?>
<!DOCTYPE svg PUBLIC "-//W3C//DTD SVG 1.1//EN" "http://www.w3.org/Graphics/SVG/1.1/DTD/svg11.dtd">
<svg xmlns="http://www.w3.org/2000/svg" version="1.1" width="1704px" height="300px" style="shape-rendering:geometricPrecision; text-rendering:geometricPrecision; image-rendering:optimizeQuality; fill-rule:evenodd; clip-rule:evenodd" xmlns:xlink="http://www.w3.org/1999/xlink">
<g><path style="opacity:0.991" fill="#000000" d="M -0.5,-0.5 C 143.833,-0.5 288.167,-0.5 432.5,-0.5C 856,0.499869 1279.67,0.833202 1703.5,0.5C 1703.5,100.167 1703.5,199.833 1703.5,299.5C 1278.17,299.5 852.833,299.5 427.5,299.5C 285.001,298.5 142.334,298.167 -0.5,298.5C -0.5,198.833 -0.5,99.1667 -0.5,-0.5 Z M 422.5,6.5 C 423.499,100.999 423.833,195.665 423.5,290.5C 284.498,290.833 145.498,290.5 6.5,289.5C 7.83235,195.97 7.83235,102.47 6.5,9C 145.504,9.16545 284.17,8.33211 422.5,6.5 Z M 89.5,86.5 C 106.328,85.3383 123.328,85.1716 140.5,86C 165.685,92.0171 175.018,107.684 168.5,133C 166.928,141.292 162.095,147.458 154,151.5C 149.628,152.708 145.295,154.041 141,155.5C 123.85,156.618 106.683,156.784 89.5,156C 90.8313,132.736 90.8313,109.569 89.5,86.5 Z"/></g>
<g><path style="opacity:0.942" fill="#000000" d="M 291.5,16.5 C 326.726,14.4614 359.393,22.4614 389.5,40.5C 394.046,44.5522 398.713,48.3855 403.5,52C 407.424,55.4169 410.757,59.2503 413.5,63.5C 408.405,69.2177 403.072,74.7177 397.5,80C 387.646,88.7474 377.646,97.2474 367.5,105.5C 359.669,98.309 351.335,91.809 342.5,86C 331.005,81.3569 319.005,78.5235 306.5,77.5C 293.228,78.2126 280.561,81.3793 268.5,87C 263.708,89.9614 259.375,93.4614 255.5,97.5C 254.311,98.4287 252.978,98.762 251.5,98.5C 249.236,82.7502 243.07,68.7502 233,56.5C 228.543,52.6753 224.376,48.5086 220.5,44C 219.552,43.5172 218.552,43.3505 217.5,43.5C 217.5,42.1667 217.5,40.8333 217.5,39.5C 219.564,39.313 221.564,38.813 223.5,38C 228.927,34.2359 234.593,30.9026 240.5,28C 245.015,26.995 249.349,25.495 253.5,23.5C 265.969,19.6955 278.636,17.3622 291.5,16.5 Z"/></g>
<g><path style="opacity:0.951" fill="#000000" d="M 16.5,26.5 C 63.8478,26.0969 111.181,26.5969 158.5,28C 225.5,41.4732 253.167,81.9732 241.5,149.5C 229.79,181.374 207.456,201.541 174.5,210C 146.828,214.948 118.828,216.781 90.5,215.5C 90.833,237.177 90.4997,258.844 89.5,280.5C 77.2104,281.157 64.877,281.491 52.5,281.5C 40.1091,281.49 27.9424,280.823 16,279.5C 15.1697,195.097 15.3364,110.763 16.5,26.5 Z M 89.5,86.5 C 90.8313,109.569 90.8313,132.736 89.5,156C 106.683,156.784 123.85,156.618 141,155.5C 145.295,154.041 149.628,152.708 154,151.5C 162.095,147.458 166.928,141.292 168.5,133C 175.018,107.684 165.685,92.0171 140.5,86C 123.328,85.1716 106.328,85.3383 89.5,86.5 Z"/></g>
<g><path style="opacity:1" fill="#fcfcfc" d="M 579.5,54.5 C 607.14,51.928 633.14,57.0947 657.5,70C 658.022,70.5613 658.355,71.228 658.5,72C 654.667,81.5 650.833,91 647,100.5C 646.481,101.516 645.647,102.182 644.5,102.5C 622.162,90.1105 598.495,86.6105 573.5,92C 562.94,95.9545 558.773,103.454 561,114.5C 562.031,117.539 563.865,120.039 566.5,122C 572.287,124.894 578.287,127.227 584.5,129C 604.808,132.993 624.475,138.993 643.5,147C 665.927,161.835 672.427,182.002 663,207.5C 656.442,221.057 646.276,230.891 632.5,237C 612.459,244.174 591.792,246.508 570.5,244C 549.506,242.116 530.506,235.116 513.5,223C 518.214,212.354 523.214,201.854 528.5,191.5C 554.019,208.304 581.686,213.471 611.5,207C 623.076,202.033 626.409,193.866 621.5,182.5C 614.95,176.558 607.283,172.725 598.5,171C 578.457,167.158 559.124,161.158 540.5,153C 518.225,137.712 511.725,117.212 521,91.5C 528.962,74.9304 541.795,64.097 559.5,59C 566.259,57.2849 572.925,55.7849 579.5,54.5 Z"/></g>
<g><path style="opacity:1" fill="#fcfcfc" d="M 1502.5,54.5 C 1532.76,51.7298 1560.1,59.2298 1584.5,77C 1614.89,104.695 1624.72,138.528 1614,178.5C 1599.85,216.347 1572.69,238.18 1532.5,244C 1492.48,249.002 1459.64,236.169 1434,205.5C 1415.27,176.691 1411.6,146.024 1423,113.5C 1439.14,79.8562 1465.64,60.1896 1502.5,54.5 Z"/></g>
<g><path style="opacity:1" fill="#fefffe" d="M 845.5,57.5 C 845.5,68.8333 845.5,80.1667 845.5,91.5C 825.833,91.5 806.167,91.5 786.5,91.5C 786.5,141.167 786.5,190.833 786.5,240.5C 772.5,240.5 758.5,240.5 744.5,240.5C 744.5,190.833 744.5,141.167 744.5,91.5C 724.833,91.5 705.167,91.5 685.5,91.5C 685.5,80.1667 685.5,68.8333 685.5,57.5C 738.833,57.5 792.167,57.5 845.5,57.5 Z"/></g>
<g><path style="opacity:1" fill="#fdfdfd" d="M 920.5,161.5 C 921.521,197.026 939.521,211.859 974.5,206C 986.141,203.027 993.974,195.86 998,184.5C 999.383,179.92 1000.38,175.253 1001,170.5C 1001.17,132.664 1001.67,94.9978 1002.5,57.5C 1016.17,57.5 1029.83,57.5 1043.5,57.5C 1043.5,95.8333 1043.5,134.167 1043.5,172.5C 1041.15,207.706 1023.15,230.539 989.5,241C 963.622,247.501 938.622,245.167 914.5,234C 892.336,219.977 880.336,199.811 878.5,173.5C 878.5,134.833 878.5,96.1667 878.5,57.5C 892.167,57.5 905.833,57.5 919.5,57.5C 919.168,92.3373 919.502,127.004 920.5,161.5 Z"/></g>
<g><path style="opacity:1" fill="#c4c4c4" d="M 920.5,161.5 C 919.502,127.004 919.168,92.3373 919.5,57.5C 905.833,57.5 892.167,57.5 878.5,57.5C 878.5,96.1667 878.5,134.833 878.5,173.5C 877.501,134.67 877.168,95.6702 877.5,56.5C 891.833,56.5 906.167,56.5 920.5,56.5C 920.5,91.5 920.5,126.5 920.5,161.5 Z"/></g>
<g><path style="opacity:1" fill="#afafaf" d="M 1002.5,57.5 C 1016.32,56.5042 1030.32,56.1709 1044.5,56.5C 1044.83,95.3369 1044.5,134.004 1043.5,172.5C 1043.5,134.167 1043.5,95.8333 1043.5,57.5C 1029.83,57.5 1016.17,57.5 1002.5,57.5 Z"/></g>
<g><path style="opacity:1" fill="#fdfdfd" d="M 1099.5,57.5 C 1133.17,57.3333 1166.83,57.5 1200.5,58C 1232.62,61.8471 1257.12,77.3471 1274,104.5C 1288.24,134.981 1287.9,165.314 1273,195.5C 1254.4,224.058 1227.9,239.058 1193.5,240.5C 1162.17,240.5 1130.83,240.5 1099.5,240.5C 1099.5,179.5 1099.5,118.5 1099.5,57.5 Z"/></g>
<g><path style="opacity:1" fill="#808080" d="M 1329.5,57.5 C 1329.5,118.5 1329.5,179.5 1329.5,240.5C 1343.5,240.5 1357.5,240.5 1371.5,240.5C 1371.5,179.5 1371.5,118.5 1371.5,57.5C 1372.5,118.664 1372.83,179.998 1372.5,241.5C 1357.83,241.5 1343.17,241.5 1328.5,241.5C 1328.17,179.998 1328.5,118.664 1329.5,57.5 Z"/></g>
<g><path style="opacity:1" fill="#fefffe" d="M 1329.5,57.5 C 1343.5,57.5 1357.5,57.5 1371.5,57.5C 1371.5,118.5 1371.5,179.5 1371.5,240.5C 1357.5,240.5 1343.5,240.5 1329.5,240.5C 1329.5,179.5 1329.5,118.5 1329.5,57.5 Z"/></g>
<g><path style="opacity:1" fill="#010101" d="M 1505.5,91.5 C 1542.33,87.8643 1565.16,103.864 1574,139.5C 1576.12,186.042 1553.96,208.875 1507.5,208C 1483.64,203.143 1468.48,188.976 1462,165.5C 1456.05,139.436 1463.21,117.936 1483.5,101C 1490.48,96.7398 1497.81,93.5731 1505.5,91.5 Z"/></g>
<g><path style="opacity:1" fill="#616161" d="M 685.5,91.5 C 705.167,91.5 724.833,91.5 744.5,91.5C 744.5,141.167 744.5,190.833 744.5,240.5C 744.5,240.833 744.5,241.167 744.5,241.5C 743.501,192.003 743.168,142.336 743.5,92.5C 723.993,92.8303 704.659,92.497 685.5,91.5 Z"/></g>
<g><path style="opacity:1" fill="#939393" d="M 845.5,57.5 C 846.495,68.988 846.828,80.6547 846.5,92.5C 826.833,92.5 807.167,92.5 787.5,92.5C 787.5,142.167 787.5,191.833 787.5,241.5C 773.167,241.5 758.833,241.5 744.5,241.5C 744.5,241.167 744.5,240.833 744.5,240.5C 758.5,240.5 772.5,240.5 786.5,240.5C 786.5,190.833 786.5,141.167 786.5,91.5C 806.167,91.5 825.833,91.5 845.5,91.5C 845.5,80.1667 845.5,68.8333 845.5,57.5 Z"/></g>
<g><path style="opacity:1" fill="#8b8b8b" d="M 1142.5,92.5 C 1142.5,130.167 1142.5,167.833 1142.5,205.5C 1157.83,205.5 1173.17,205.5 1188.5,205.5C 1173.01,206.496 1157.34,206.83 1141.5,206.5C 1141.17,168.33 1141.5,130.33 1142.5,92.5 Z"/></g>
<g><path style="opacity:1" fill="#000000" d="M 1142.5,92.5 C 1159.17,92.3334 1175.84,92.5001 1192.5,93C 1227.77,100.685 1243.6,122.518 1240,158.5C 1234.79,187.057 1217.62,202.724 1188.5,205.5C 1173.17,205.5 1157.83,205.5 1142.5,205.5C 1142.5,167.833 1142.5,130.167 1142.5,92.5 Z"/></g>
<g><path style="opacity:0.953" fill="#000000" d="M 343.5,142.5 C 365.167,142.5 386.833,142.5 408.5,142.5C 408.667,177.168 408.5,211.835 408,246.5C 404.474,250.777 400.14,254.11 395,256.5C 354.391,278.39 311.225,285.223 265.5,277C 232.115,268.563 204.948,250.729 184,223.5C 183.023,221.26 182.523,218.927 182.5,216.5C 206.259,210.809 224.926,197.976 238.5,178C 239.793,177.51 241.127,177.343 242.5,177.5C 248.813,195.343 260.98,207.676 279,214.5C 292.95,219.121 307.116,220.121 321.5,217.5C 329.04,216.116 336.373,214.116 343.5,211.5C 343.5,188.5 343.5,165.5 343.5,142.5 Z"/></g>
<g><path style="opacity:1" fill="#8f8f8f" d="M 1099.5,57.5 C 1099.5,118.5 1099.5,179.5 1099.5,240.5C 1130.83,240.5 1162.17,240.5 1193.5,240.5C 1162,241.498 1130.34,241.832 1098.5,241.5C 1098.17,179.998 1098.5,118.664 1099.5,57.5 Z"/></g>
</svg>
