<?xml version="1.0" encoding="UTF-8"?>
<!DOCTYPE svg PUBLIC "-//W3C//DTD SVG 1.1//EN" "http://www.w3.org/Graphics/SVG/1.1/DTD/svg11.dtd">
<svg xmlns="http://www.w3.org/2000/svg" version="1.1" width="1236px" height="1065px" style="shape-rendering:geometricPrecision; text-rendering:geometricPrecision; image-rendering:optimizeQuality; fill-rule:evenodd; clip-rule:evenodd" xmlns:xlink="http://www.w3.org/1999/xlink">
<g><path style="opacity:0.985" fill="#000000" d="M -0.5,-0.5 C 411.5,-0.5 823.5,-0.5 1235.5,-0.5C 1235.5,354.5 1235.5,709.5 1235.5,1064.5C 823.5,1064.5 411.5,1064.5 -0.5,1064.5C -0.5,709.5 -0.5,354.5 -0.5,-0.5 Z M 20.5,20.5 C 418.5,20.5 816.5,20.5 1214.5,20.5C 1214.5,291.5 1214.5,562.5 1214.5,833.5C 816.5,833.5 418.5,833.5 20.5,833.5C 20.5,562.5 20.5,291.5 20.5,20.5 Z M 256.5,242.5 C 301.515,242.103 346.515,242.603 391.5,244C 418.355,245.725 442.355,254.725 463.5,271C 484.76,292.083 495.094,317.75 494.5,348C 493.526,402.972 466.193,436.305 412.5,448C 405.876,449.28 399.21,450.28 392.5,451C 347.183,452.411 301.849,452.911 256.5,452.5C 256.5,382.5 256.5,312.5 256.5,242.5 Z"/></g>
<g><path style="opacity:0.992" fill="#000000" d="M 836.5,53.5 C 905.498,49.3322 972.498,58.8322 1037.5,82C 1094.66,103.893 1142.99,138.06 1182.5,184.5C 1139.8,224.039 1096.63,263.039 1053,301.5C 1044.88,294.377 1037.04,286.877 1029.5,279C 972.336,230.622 906.67,212.955 832.5,226C 791.139,233.093 755.973,251.593 727,281.5C 713.228,215.753 680.061,162.253 627.5,121C 691.284,80.35 760.951,57.85 836.5,53.5 Z"/></g>
<g><path style="opacity:0.994" fill="#000000" d="M 52.5,82.5 C 170.5,82.3333 288.5,82.5 406.5,83C 469.719,84.5516 528.719,100.885 583.5,132C 654.644,177.397 693.144,242.564 699,327.5C 703.452,463.808 640.952,552.975 511.5,595C 477.872,604.882 443.539,610.549 408.5,612C 357.834,612.5 307.168,612.667 256.5,612.5C 256.5,674.833 256.5,737.167 256.5,799.5C 188.5,799.5 120.5,799.5 52.5,799.5C 52.5,560.5 52.5,321.5 52.5,82.5 Z M 256.5,242.5 C 256.5,312.5 256.5,382.5 256.5,452.5C 301.849,452.911 347.183,452.411 392.5,451C 399.21,450.28 405.876,449.28 412.5,448C 466.193,436.305 493.526,402.972 494.5,348C 495.094,317.75 484.76,292.083 463.5,271C 442.355,254.725 418.355,245.725 391.5,244C 346.515,242.603 301.515,242.103 256.5,242.5 Z"/></g>
<g><path style="opacity:0.994" fill="#000000" d="M 985.5,410.5 C 1045.5,410.5 1105.5,410.5 1165.5,410.5C 1165.67,509.834 1165.5,609.167 1165,708.5C 1123.05,738.285 1077.21,760.452 1027.5,775C 940.622,801.432 852.622,806.099 763.5,789C 676.076,770.07 603.91,726.57 547,658.5C 539.444,648.611 532.278,638.444 525.5,628C 579.64,611.195 626.14,582.362 665,541.5C 673.769,531.399 681.769,520.732 689,509.5C 722.32,583.783 779.82,623.949 861.5,630C 904.342,632.416 945.342,624.916 984.5,607.5C 985.5,541.837 985.833,476.17 985.5,410.5 Z"/></g>
<g><path style="opacity:1" fill="#fcfcfc" d="M 215.5,880.5 C 236.267,878.309 256.267,881.143 275.5,889C 278.115,889.795 280.115,891.295 281.5,893.5C 278.036,903.091 274.036,912.424 269.5,921.5C 253.445,912.855 236.445,909.688 218.5,912C 208.065,915.489 206.065,921.489 212.5,930C 230.275,934.528 247.941,939.528 265.5,945C 288.48,957.619 293.98,975.786 282,999.5C 273.913,1009.9 263.413,1016.73 250.5,1020C 226.696,1024.61 203.363,1022.95 180.5,1015C 175.388,1013.28 170.721,1010.78 166.5,1007.5C 170.911,997.756 175.411,988.089 180,978.5C 197.667,989.473 216.834,993.64 237.5,991C 243.988,990.614 247.654,987.28 248.5,981C 248.205,978.077 246.871,975.743 244.5,974C 231.437,969.401 218.104,965.734 204.5,963C 187.918,960.073 176.418,950.906 170,935.5C 165.798,915.097 172.632,899.597 190.5,889C 198.576,885.031 206.909,882.198 215.5,880.5 Z"/></g>
<g><path style="opacity:1" fill="#fcfcfc" d="M 976.5,880.5 C 1001.28,877.548 1023.62,883.382 1043.5,898C 1070.58,924.519 1075.41,954.686 1058,988.5C 1044.19,1008 1025.35,1019.16 1001.5,1022C 972.651,1025.61 948.151,1017.11 928,996.5C 911.529,974.58 907.863,950.58 917,924.5C 924.055,908.779 935.221,896.945 950.5,889C 958.991,885.225 967.657,882.391 976.5,880.5 Z"/></g>
<g><path style="opacity:1" fill="#fdfdfd" d="M 311.5,881.5 C 353.167,881.5 394.833,881.5 436.5,881.5C 436.5,891.833 436.5,902.167 436.5,912.5C 422.5,912.5 408.5,912.5 394.5,912.5C 394.5,948.833 394.5,985.167 394.5,1021.5C 381.167,1021.5 367.833,1021.5 354.5,1021.5C 354.5,985.167 354.5,948.833 354.5,912.5C 340.167,912.5 325.833,912.5 311.5,912.5C 311.5,902.167 311.5,891.833 311.5,881.5 Z"/></g>
<g><path style="opacity:1" fill="#fcfcfc" d="M 467.5,881.5 C 480.833,881.5 494.167,881.5 507.5,881.5C 507.048,911.536 507.548,941.536 509,971.5C 512.273,983.106 519.94,989.106 532,989.5C 545.948,990.208 554.614,983.875 558,970.5C 559.451,940.87 559.951,911.203 559.5,881.5C 572.833,881.5 586.167,881.5 599.5,881.5C 599.667,909.835 599.5,938.169 599,966.5C 593.427,1004.72 571.26,1023.39 532.5,1022.5C 512.243,1023.58 495.077,1016.92 481,1002.5C 474.153,993.636 469.819,983.636 468,972.5C 467.5,942.168 467.333,911.835 467.5,881.5 Z"/></g>
<g><path style="opacity:1" fill="#fdfdfd" d="M 646.5,881.5 C 673.169,881.333 699.835,881.5 726.5,882C 776.013,891.181 796.847,920.681 789,970.5C 783.26,991.908 770.093,1006.74 749.5,1015C 742.063,1017.89 734.397,1019.89 726.5,1021C 699.835,1021.5 673.169,1021.67 646.5,1021.5C 646.5,974.833 646.5,928.167 646.5,881.5 Z"/></g>
<g><path style="opacity:1" fill="#fdfdfd" d="M 831.5,881.5 C 844.833,881.5 858.167,881.5 871.5,881.5C 871.5,928.167 871.5,974.833 871.5,1021.5C 858.167,1021.5 844.833,1021.5 831.5,1021.5C 831.5,974.833 831.5,928.167 831.5,881.5 Z"/></g>
<g><path style="opacity:1" fill="#010101" d="M 686.5,913.5 C 697.172,913.333 707.839,913.5 718.5,914C 744.748,920.295 754.915,936.795 749,963.5C 743.82,978.995 732.987,987.495 716.5,989C 706.506,989.5 696.506,989.666 686.5,989.5C 686.5,964.167 686.5,938.833 686.5,913.5 Z"/></g>
<g><path style="opacity:1" fill="#020202" d="M 982.5,913.5 C 1013.85,913.013 1028.68,928.346 1027,959.5C 1020.65,981.16 1006.15,990.994 983.5,989C 959.819,982.61 949.653,967.11 953,942.5C 957.456,927.21 967.289,917.543 982.5,913.5 Z"/></g>
</svg>
